<mxfile host="app.diagrams.net" agent="Mozilla/5.0 (Windows NT 10.0; Win64; x64) AppleWebKit/537.36 (KHTML, like Gecko) Chrome/135.0.0.0 Safari/537.36" version="26.2.13">
  <diagram name="第 1 页" id="n-ulIGqQL8pKO5-XB59z">
    <mxGraphModel dx="827" dy="444" grid="1" gridSize="10" guides="1" tooltips="1" connect="1" arrows="1" fold="1" page="1" pageScale="1" pageWidth="850" pageHeight="1100" math="0" shadow="0">
      <root>
        <mxCell id="0" />
        <mxCell id="1" parent="0" />
        <mxCell id="7sUywVJ7Zy2WN8rPPtt8-1" value="" style="group" parent="1" vertex="1" connectable="0">
          <mxGeometry x="320" y="495" width="140" height="110" as="geometry" />
        </mxCell>
        <mxCell id="7sUywVJ7Zy2WN8rPPtt8-9" value="" style="rounded=0;whiteSpace=wrap;html=1;" parent="7sUywVJ7Zy2WN8rPPtt8-1" vertex="1">
          <mxGeometry x="-28" y="-10" width="168" height="120" as="geometry" />
        </mxCell>
        <mxCell id="7sUywVJ7Zy2WN8rPPtt8-2" value="&lt;font style=&quot;color: rgb(51, 51, 255);&quot;&gt;A0&lt;/font&gt;" style="text;html=1;align=center;verticalAlign=middle;whiteSpace=wrap;rounded=0;container=0;" parent="7sUywVJ7Zy2WN8rPPtt8-1" vertex="1">
          <mxGeometry y="10" width="28" height="20" as="geometry" />
        </mxCell>
        <mxCell id="7sUywVJ7Zy2WN8rPPtt8-3" value="" style="verticalLabelPosition=bottom;shadow=0;dashed=0;align=center;html=1;verticalAlign=top;shape=mxgraph.electrical.logic_gates.logic_gate;operation=or;container=0;" parent="7sUywVJ7Zy2WN8rPPtt8-1" vertex="1">
          <mxGeometry x="9.333333333333334" y="20" width="93.33333333333333" height="60" as="geometry" />
        </mxCell>
        <mxCell id="7sUywVJ7Zy2WN8rPPtt8-4" value="&lt;font style=&quot;color: rgb(255, 0, 0);&quot;&gt;I1&lt;/font&gt;" style="text;html=1;align=center;verticalAlign=middle;whiteSpace=wrap;rounded=0;container=0;" parent="7sUywVJ7Zy2WN8rPPtt8-1" vertex="1">
          <mxGeometry x="32.666666666666664" width="28" height="20" as="geometry" />
        </mxCell>
        <mxCell id="7sUywVJ7Zy2WN8rPPtt8-5" value="&lt;font style=&quot;color: rgb(51, 51, 255);&quot;&gt;A1&lt;/font&gt;" style="text;html=1;align=center;verticalAlign=middle;whiteSpace=wrap;rounded=0;container=0;" parent="7sUywVJ7Zy2WN8rPPtt8-1" vertex="1">
          <mxGeometry y="65" width="28" height="20" as="geometry" />
        </mxCell>
        <mxCell id="7sUywVJ7Zy2WN8rPPtt8-6" value="&lt;font style=&quot;color: rgb(51, 51, 255);&quot;&gt;Y&lt;/font&gt;" style="text;html=1;align=center;verticalAlign=middle;whiteSpace=wrap;rounded=0;container=0;" parent="7sUywVJ7Zy2WN8rPPtt8-1" vertex="1">
          <mxGeometry x="84" y="30" width="28" height="20" as="geometry" />
        </mxCell>
        <mxCell id="7sUywVJ7Zy2WN8rPPtt8-10" value="" style="endArrow=none;html=1;rounded=0;entryX=0;entryY=0.25;entryDx=0;entryDy=0;entryPerimeter=0;exitX=0.001;exitY=0.381;exitDx=0;exitDy=0;exitPerimeter=0;" parent="7sUywVJ7Zy2WN8rPPtt8-1" source="7sUywVJ7Zy2WN8rPPtt8-9" target="7sUywVJ7Zy2WN8rPPtt8-3" edge="1">
          <mxGeometry width="50" height="50" relative="1" as="geometry">
            <mxPoint y="105" as="sourcePoint" />
            <mxPoint x="46.666666666666664" y="55" as="targetPoint" />
          </mxGeometry>
        </mxCell>
        <mxCell id="7sUywVJ7Zy2WN8rPPtt8-11" value="" style="endArrow=none;html=1;rounded=0;entryX=0;entryY=0.75;entryDx=0;entryDy=0;entryPerimeter=0;exitX=0.002;exitY=0.624;exitDx=0;exitDy=0;exitPerimeter=0;" parent="7sUywVJ7Zy2WN8rPPtt8-1" source="7sUywVJ7Zy2WN8rPPtt8-9" target="7sUywVJ7Zy2WN8rPPtt8-3" edge="1">
          <mxGeometry width="50" height="50" relative="1" as="geometry">
            <mxPoint y="105" as="sourcePoint" />
            <mxPoint x="46.666666666666664" y="55" as="targetPoint" />
          </mxGeometry>
        </mxCell>
        <mxCell id="7sUywVJ7Zy2WN8rPPtt8-13" value="" style="endArrow=none;html=1;rounded=0;entryX=1;entryY=0.5;entryDx=0;entryDy=0;entryPerimeter=0;exitX=1;exitY=0.5;exitDx=0;exitDy=0;" parent="7sUywVJ7Zy2WN8rPPtt8-1" source="7sUywVJ7Zy2WN8rPPtt8-9" target="7sUywVJ7Zy2WN8rPPtt8-3" edge="1">
          <mxGeometry width="50" height="50" relative="1" as="geometry">
            <mxPoint x="50" y="105" as="sourcePoint" />
            <mxPoint x="100" y="55" as="targetPoint" />
          </mxGeometry>
        </mxCell>
        <mxCell id="7sUywVJ7Zy2WN8rPPtt8-7" value="ExtSe" style="text;html=1;align=center;verticalAlign=middle;whiteSpace=wrap;rounded=0;" parent="1" vertex="1">
          <mxGeometry x="250.5" y="560" width="39" height="30" as="geometry" />
        </mxCell>
        <mxCell id="7sUywVJ7Zy2WN8rPPtt8-8" value="scan enable" style="text;html=1;align=center;verticalAlign=middle;whiteSpace=wrap;rounded=0;" parent="1" vertex="1">
          <mxGeometry x="210" y="500" width="70" height="30" as="geometry" />
        </mxCell>
        <mxCell id="7sUywVJ7Zy2WN8rPPtt8-12" value="Y" style="text;html=1;align=center;verticalAlign=middle;whiteSpace=wrap;rounded=0;" parent="1" vertex="1">
          <mxGeometry x="460" y="510" width="20" height="30" as="geometry" />
        </mxCell>
        <mxCell id="7sUywVJ7Zy2WN8rPPtt8-14" value="Wrapper ExtSE Control Model" style="text;html=1;align=center;verticalAlign=middle;whiteSpace=wrap;rounded=0;" parent="1" vertex="1">
          <mxGeometry x="300" y="620" width="170" height="30" as="geometry" />
        </mxCell>
        <mxCell id="p7Jox_cMZrCT1XHYpOK--1" value="" style="group" vertex="1" connectable="0" parent="1">
          <mxGeometry x="320" y="310" width="140" height="110" as="geometry" />
        </mxCell>
        <mxCell id="p7Jox_cMZrCT1XHYpOK--2" value="" style="rounded=0;whiteSpace=wrap;html=1;" vertex="1" parent="p7Jox_cMZrCT1XHYpOK--1">
          <mxGeometry x="-28" y="-10" width="168" height="120" as="geometry" />
        </mxCell>
        <mxCell id="p7Jox_cMZrCT1XHYpOK--3" value="&lt;font style=&quot;color: rgb(51, 51, 255);&quot;&gt;A0&lt;/font&gt;" style="text;html=1;align=center;verticalAlign=middle;whiteSpace=wrap;rounded=0;container=0;" vertex="1" parent="p7Jox_cMZrCT1XHYpOK--1">
          <mxGeometry y="10" width="28" height="20" as="geometry" />
        </mxCell>
        <mxCell id="p7Jox_cMZrCT1XHYpOK--4" value="" style="verticalLabelPosition=bottom;shadow=0;dashed=0;align=center;html=1;verticalAlign=top;shape=mxgraph.electrical.logic_gates.logic_gate;operation=or;container=0;" vertex="1" parent="p7Jox_cMZrCT1XHYpOK--1">
          <mxGeometry x="9.333333333333334" y="20" width="93.33333333333333" height="60" as="geometry" />
        </mxCell>
        <mxCell id="p7Jox_cMZrCT1XHYpOK--5" value="&lt;font style=&quot;color: rgb(255, 0, 0);&quot;&gt;I1&lt;/font&gt;" style="text;html=1;align=center;verticalAlign=middle;whiteSpace=wrap;rounded=0;container=0;" vertex="1" parent="p7Jox_cMZrCT1XHYpOK--1">
          <mxGeometry x="32.666666666666664" width="28" height="20" as="geometry" />
        </mxCell>
        <mxCell id="p7Jox_cMZrCT1XHYpOK--6" value="&lt;font style=&quot;color: rgb(51, 51, 255);&quot;&gt;A1&lt;/font&gt;" style="text;html=1;align=center;verticalAlign=middle;whiteSpace=wrap;rounded=0;container=0;" vertex="1" parent="p7Jox_cMZrCT1XHYpOK--1">
          <mxGeometry y="65" width="28" height="20" as="geometry" />
        </mxCell>
        <mxCell id="p7Jox_cMZrCT1XHYpOK--7" value="&lt;font style=&quot;color: rgb(51, 51, 255);&quot;&gt;Y&lt;/font&gt;" style="text;html=1;align=center;verticalAlign=middle;whiteSpace=wrap;rounded=0;container=0;" vertex="1" parent="p7Jox_cMZrCT1XHYpOK--1">
          <mxGeometry x="84" y="30" width="28" height="20" as="geometry" />
        </mxCell>
        <mxCell id="p7Jox_cMZrCT1XHYpOK--8" value="" style="endArrow=none;html=1;rounded=0;entryX=0;entryY=0.25;entryDx=0;entryDy=0;entryPerimeter=0;exitX=0.001;exitY=0.381;exitDx=0;exitDy=0;exitPerimeter=0;" edge="1" parent="p7Jox_cMZrCT1XHYpOK--1" source="p7Jox_cMZrCT1XHYpOK--2" target="p7Jox_cMZrCT1XHYpOK--4">
          <mxGeometry width="50" height="50" relative="1" as="geometry">
            <mxPoint y="105" as="sourcePoint" />
            <mxPoint x="46.666666666666664" y="55" as="targetPoint" />
          </mxGeometry>
        </mxCell>
        <mxCell id="p7Jox_cMZrCT1XHYpOK--9" value="" style="endArrow=none;html=1;rounded=0;entryX=0;entryY=0.75;entryDx=0;entryDy=0;entryPerimeter=0;exitX=0.002;exitY=0.624;exitDx=0;exitDy=0;exitPerimeter=0;" edge="1" parent="p7Jox_cMZrCT1XHYpOK--1" source="p7Jox_cMZrCT1XHYpOK--2" target="p7Jox_cMZrCT1XHYpOK--4">
          <mxGeometry width="50" height="50" relative="1" as="geometry">
            <mxPoint y="105" as="sourcePoint" />
            <mxPoint x="46.666666666666664" y="55" as="targetPoint" />
          </mxGeometry>
        </mxCell>
        <mxCell id="p7Jox_cMZrCT1XHYpOK--10" value="" style="endArrow=none;html=1;rounded=0;entryX=1;entryY=0.5;entryDx=0;entryDy=0;entryPerimeter=0;exitX=1;exitY=0.5;exitDx=0;exitDy=0;" edge="1" parent="p7Jox_cMZrCT1XHYpOK--1" source="p7Jox_cMZrCT1XHYpOK--2" target="p7Jox_cMZrCT1XHYpOK--4">
          <mxGeometry width="50" height="50" relative="1" as="geometry">
            <mxPoint x="50" y="105" as="sourcePoint" />
            <mxPoint x="100" y="55" as="targetPoint" />
          </mxGeometry>
        </mxCell>
        <mxCell id="p7Jox_cMZrCT1XHYpOK--11" value="IntSe" style="text;html=1;align=center;verticalAlign=middle;whiteSpace=wrap;rounded=0;" vertex="1" parent="1">
          <mxGeometry x="250.5" y="375" width="39" height="30" as="geometry" />
        </mxCell>
        <mxCell id="p7Jox_cMZrCT1XHYpOK--12" value="scan enable" style="text;html=1;align=center;verticalAlign=middle;whiteSpace=wrap;rounded=0;" vertex="1" parent="1">
          <mxGeometry x="210" y="315" width="70" height="30" as="geometry" />
        </mxCell>
        <mxCell id="p7Jox_cMZrCT1XHYpOK--13" value="Y" style="text;html=1;align=center;verticalAlign=middle;whiteSpace=wrap;rounded=0;" vertex="1" parent="1">
          <mxGeometry x="460" y="325" width="20" height="30" as="geometry" />
        </mxCell>
        <mxCell id="p7Jox_cMZrCT1XHYpOK--14" value="Wrapper IntSE Control Model" style="text;html=1;align=center;verticalAlign=middle;whiteSpace=wrap;rounded=0;" vertex="1" parent="1">
          <mxGeometry x="300" y="435" width="160" height="30" as="geometry" />
        </mxCell>
      </root>
    </mxGraphModel>
  </diagram>
</mxfile>
